<svg xmlns="http://www.w3.org/2000/svg" viewBox="0 0 800 600">
  <!-- 背景 - 室内環境 -->
  <rect width="800" height="600" fill="#f8f9fa"/>
  
  <!-- 床面のタイル -->
  <g opacity="0.1">
    <pattern id="tiles" patternUnits="userSpaceOnUse" width="40" height="40">
      <rect width="40" height="40" fill="none" stroke="#888" stroke-width="0.5"/>
    </pattern>
    <rect width="800" height="400" y="200" fill="url(#tiles)"/>
  </g>
  
  <!-- 壁 -->
  <rect x="50" y="200" width="700" height="10" fill="#ddd"/>
  <rect x="50" y="200" width="10" height="400" fill="#ddd"/>
  <rect x="740" y="200" width="10" height="400" fill="#ddd"/>
  <rect x="300" y="200" width="10" height="150" fill="#ddd"/>
  <rect x="500" y="200" width="10" height="250" fill="#ddd"/>
  <rect x="300" y="400" width="210" height="10" fill="#ddd"/>
  
  <!-- 店舗や部屋 -->
  <rect x="60" y="210" width="230" height="150" fill="#f0f0f0" stroke="#ccc"/>
  <rect x="310" y="210" width="180" height="150" fill="#f0f0f0" stroke="#ccc"/>
  <rect x="510" y="210" width="230" height="150" fill="#f0f0f0" stroke="#ccc"/>
  <rect x="60" y="410" width="230" height="150" fill="#f0f0f0" stroke="#ccc"/>
  <rect x="510" y="410" width="230" height="150" fill="#f0f0f0" stroke="#ccc"/>
  
  <!-- 店舗名 -->
  <text x="175" y="285" font-family="Arial" font-size="16" fill="#555" text-anchor="middle">ショップA</text>
  <text x="400" y="285" font-family="Arial" font-size="16" fill="#555" text-anchor="middle">カフェ</text>
  <text x="625" y="285" font-family="Arial" font-size="16" fill="#555" text-anchor="middle">ショップB</text>
  <text x="175" y="485" font-family="Arial" font-size="16" fill="#555" text-anchor="middle">レストラン</text>
  <text x="625" y="485" font-family="Arial" font-size="16" fill="#555" text-anchor="middle">ショップC</text>
  
  <!-- Bluetoothビーコン -->
  <g>
    <circle cx="60" cy="210" r="8" fill="#4285F4" opacity="0.8"/>
    <path d="M60,210 l-4,-6 l8,0 z" fill="#4285F4"/>
    <circle cx="60" cy="210" r="15" fill="#4285F4" opacity="0.3"/>
    <circle cx="60" cy="210" r="25" fill="#4285F4" opacity="0.1"/>
    <text x="85" y="214" font-family="Arial" font-size="10" fill="#4285F4">Beaconビーコン 1</text>
  </g>
  
  <g>
    <circle cx="310" cy="210" r="8" fill="#4285F4" opacity="0.8"/>
    <path d="M310,210 l-4,-6 l8,0 z" fill="#4285F4"/>
    <circle cx="310" cy="210" r="15" fill="#4285F4" opacity="0.3"/>
    <circle cx="310" cy="210" r="25" fill="#4285F4" opacity="0.1"/>
    <text x="335" y="214" font-family="Arial" font-size="10" fill="#4285F4">Beaconビーコン 2</text>
  </g>
  
  <g>
    <circle cx="510" cy="210" r="8" fill="#4285F4" opacity="0.8"/>
    <path d="M510,210 l-4,-6 l8,0 z" fill="#4285F4"/>
    <circle cx="510" cy="210" r="15" fill="#4285F4" opacity="0.3"/>
    <circle cx="510" cy="210" r="25" fill="#4285F4" opacity="0.1"/>
    <text x="535" y="214" font-family="Arial" font-size="10" fill="#4285F4">Beaconビーコン 3</text>
  </g>
  
  <g>
    <circle cx="740" cy="410" r="8" fill="#4285F4" opacity="0.8"/>
    <path d="M740,410 l-4,-6 l8,0 z" fill="#4285F4"/>
    <circle cx="740" cy="410" r="15" fill="#4285F4" opacity="0.3"/>
    <circle cx="740" cy="410" r="25" fill="#4285F4" opacity="0.1"/>
    <text x="715" y="414" font-family="Arial" font-size="10" fill="#4285F4" text-anchor="end">Beaconビーコン 4</text>
  </g>
  
  <!-- ユーザーの現在位置 -->
  <circle cx="400" cy="500" r="10" fill="#EA4335"/>
  <circle cx="400" cy="500" r="20" fill="#EA4335" opacity="0.3"/>
  <text x="400" y="530" font-family="Arial" font-size="12" fill="#EA4335" text-anchor="middle">現在位置</text>
  
  <!-- AR表示のスマートフォン枠 -->
  <g transform="translate(300, 30) scale(0.8)">
    <rect x="0" y="0" width="250" height="480" rx="20" ry="20" fill="#333"/>
    <rect x="10" y="10" width="230" height="460" rx="10" ry="10" fill="#f5f5f5"/>
    
    <!-- スマホ画面内のAR表示 -->
    <rect x="20" y="20" width="210" height="370" fill="#000" opacity="0.8"/>
    
    <!-- AR内の室内マップと案内 -->
    <g opacity="0.8">
      <!-- 簡易マップ(縮小版) -->
      <rect x="30" y="30" width="190" height="100" fill="#333" stroke="#555"/>
      <rect x="40" y="40" width="80" height="40" fill="#555" stroke="#666"/>
      <rect x="130" y="40" width="80" height="40" fill="#555" stroke="#666"/>
      <rect x="40" y="90" width="80" height="30" fill="#555" stroke="#666"/>
      <rect x="130" y="90" width="80" height="30" fill="#555" stroke="#666"/>
      
      <!-- 現在位置マーカー -->
      <circle cx="125" cy="110" r="5" fill="#EA4335"/>
      
      <!-- 目的地マーカー -->
      <circle cx="170" cy="60" r="5" fill="#34A853"/>
      
      <!-- ナビゲーションライン -->
      <path d="M125,110 L130,90 L170,60" stroke="#4285F4" stroke-width="3" fill="none" stroke-dasharray="5,3"/>
    </g>
    
    <!-- カメラビュー内のAR表示 -->
    <g>
      <!-- ARで表示された方向指示 -->
      <path d="M125,200 L170,160 L165,155 L185,155 L185,175 L180,170 L125,200" fill="#4285F4" opacity="0.7"/>
      
      <!-- 距離情報 -->
      <rect x="95" y="210" width="80" height="25" rx="5" ry="5" fill="#FFF" opacity="0.7"/>
      <text x="135" y="227" font-family="Arial" font-size="12" fill="#333" text-anchor="middle">15m先</text>
      
      <!-- 目的地情報 -->
      <rect x="50" y="240" width="170" height="40" rx="5" ry="5" fill="#FFF" opacity="0.7"/>
      <text x="135" y="260" font-family="Arial" font-size="14" fill="#333" text-anchor="middle">ショップB</text>
      <text x="135" y="275" font-family="Arial" font-size="10" fill="#777" text-anchor="middle">営業中 - 右方向へ進んでください</text>
      
      <!-- ビーコン信号強度表示 -->
      <rect x="50" y="290" width="170" height="30" rx="5" ry="5" fill="#1A73E8" opacity="0.7"/>
      <text x="135" y="310" font-family="Arial" font-size="11" fill="#FFF" text-anchor="middle">ビーコン3から強い信号を受信中</text>
    </g>
    
    <!-- スマホの物理ボタン -->
    <rect x="110" y="400" width="30" height="30" rx="15" ry="15" fill="#ddd"/>
  </g>
  
  <!-- 案内矢印アニメーション (ARで表示される経路) -->
  <defs>
    <marker id="arrowhead" markerWidth="5" markerHeight="5" refX="2.5" refY="2.5" orient="auto">
      <polygon points="0 0, 5 2.5, 0 5" fill="#4285F4"/>
    </marker>
  </defs>
  
  <path d="M400,500 C450,480 480,430 510,400 C540,370 580,350 625,350" 
        stroke="#4285F4" stroke-width="5" fill="none" 
        stroke-dasharray="8,4" marker-end="url(#arrowhead)"/>
</svg>