<svg xmlns="http://www.w3.org/2000/svg" viewBox="0 0 1000 600" width="1000" height="600">
  <!-- 定義 -->
  <defs>
    <!-- グラデーション定義 -->
    <linearGradient id="app-gradient" x1="0%" y1="0%" x2="100%" y2="0%">
      <stop offset="0%" stop-color="#3B82F6" />
      <stop offset="100%" stop-color="#4F46E5" />
    </linearGradient>
    
    <linearGradient id="accent-gradient" x1="0%" y1="0%" x2="100%" y2="0%">
      <stop offset="0%" stop-color="#EC4899" />
      <stop offset="100%" stop-color="#F43F5E" />
    </linearGradient>
    
    <linearGradient id="green-gradient" x1="0%" y1="0%" x2="100%" y2="0%">
      <stop offset="0%" stop-color="#10B981" />
      <stop offset="100%" stop-color="#059669" />
    </linearGradient>

    <!-- フィルター効果 -->
    <filter id="shadow" x="-20%" y="-20%" width="140%" height="140%">
      <feDropShadow dx="0" dy="4" stdDeviation="6" flood-opacity="0.15"/>
    </filter>
    
    <filter id="glow">
      <feGaussianBlur stdDeviation="2.5" result="blur"/>
      <feComposite in="SourceGraphic" in2="blur" operator="over"/>
    </filter>

    <!-- 矢印アニメーション -->
    <path id="arrow-path" d="M0,0 C100,0 150,-40 250,-40 S400,0 500,0" />

    <!-- 発見のパルスアニメーション -->
    <radialGradient id="discovery-pulse" cx="50%" cy="50%" r="50%" fx="50%" fy="50%">
      <stop offset="0%" stop-color="#F43F5E" stop-opacity="0.8">
        <animate attributeName="stop-opacity" values="0.8;0.3;0.8" dur="3s" repeatCount="indefinite"/>
      </stop>
      <stop offset="70%" stop-color="#F43F5E" stop-opacity="0.2">
        <animate attributeName="stop-opacity" values="0.2;0.1;0.2" dur="3s" repeatCount="indefinite"/>
      </stop>
      <stop offset="100%" stop-color="#F43F5E" stop-opacity="0" />
    </radialGradient>
  </defs>

  <!-- 背景 -->
  <rect width="1000" height="600" fill="white" />
  
  <!-- タイトル -->
  <text x="500" y="60" font-family="Arial, sans-serif" font-size="32" font-weight="bold" text-anchor="middle" fill="#0F172A">
    「迷わない」から「発見する」へ
  </text>
  
  <!-- 左側: 従来のマップ体験（迷わない） -->
  <g transform="translate(180, 150)">
    <!-- 背景カード -->
    <rect x="0" y="0" width="250" height="400" rx="20" ry="20" fill="white" filter="url(#shadow)" />
    
    <!-- ヘッダー -->
    <rect x="0" y="0" width="250" height="70" rx="20" ry="20" fill="url(#app-gradient)" />
    <text x="125" y="40" font-family="Arial, sans-serif" font-size="20" font-weight="bold" text-anchor="middle" fill="white">
      従来のマップ体験
    </text>
    
    <!-- アイコン：地図 -->
    <g transform="translate(105, 110)">
      <circle cx="20" cy="20" r="30" fill="url(#app-gradient)" opacity="0.1" />
      <rect x="5" y="5" width="30" height="30" fill="none" stroke="#3B82F6" stroke-width="2" />
      <path d="M5,5 L15,10 L15,35 L5,30 Z" fill="#3B82F6" opacity="0.3" />
      <path d="M15,10 L25,5 L35,10 L25,15 Z" fill="#3B82F6" opacity="0.3" />
      <path d="M25,15 L35,10 L35,35 L25,40 L25,15 Z" fill="#3B82F6" opacity="0.3" />
      <path d="M15,10 L25,15 L25,40 L15,35 Z" fill="#3B82F6" opacity="0.5" />
    </g>
    
    <!-- 特徴リスト -->
    <text x="125" y="170" font-family="Arial, sans-serif" font-size="18" font-weight="bold" text-anchor="middle" fill="#0F172A">
      「迷わないこと」
    </text>
    
    <g transform="translate(40, 210)">
      <rect x="0" y="0" width="170" height="30" rx="5" ry="5" fill="#EFF6FF" />
      <text x="85" y="20" font-family="Arial, sans-serif" font-size="14" text-anchor="middle" fill="#3B82F6">
        静的な案内表示
      </text>
    </g>
    
    <g transform="translate(40, 260)">
      <rect x="0" y="0" width="170" height="30" rx="5" ry="5" fill="#EFF6FF" />
      <text x="85" y="20" font-family="Arial, sans-serif" font-size="14" text-anchor="middle" fill="#3B82F6">
        単一目的の動線設計
      </text>
    </g>
    
    <g transform="translate(40, 310)">
      <rect x="0" y="0" width="170" height="30" rx="5" ry="5" fill="#EFF6FF" />
      <text x="85" y="20" font-family="Arial, sans-serif" font-size="14" text-anchor="middle" fill="#3B82F6">
        場所の把握が主目的
      </text>
    </g>
  </g>
  
  <!-- 右側: 3Dパンフレット体験（発見する） -->
  <g transform="translate(570, 150)">
    <!-- 背景カード -->
    <rect x="0" y="0" width="250" height="400" rx="20" ry="20" fill="white" filter="url(#shadow)" />
    
    <!-- ヘッダー -->
    <rect x="0" y="0" width="250" height="70" rx="20" ry="20" fill="url(#accent-gradient)" />
    <text x="125" y="40" font-family="Arial, sans-serif" font-size="20" font-weight="bold" text-anchor="middle" fill="white">
      3Dパンフレット体験
    </text>
    
    <!-- アイコン：AR/3D体験 -->
    <g transform="translate(105, 110)">
      <circle cx="20" cy="20" r="35" fill="url(#discovery-pulse)" />
      <g transform="rotate(45)">
        <rect x="-15" y="-15" width="30" height="30" fill="none" stroke="#F43F5E" stroke-width="2" />
        <rect x="-10" y="-10" width="20" height="20" fill="#F43F5E" opacity="0.2" />
        <circle cx="10" cy="-10" r="4" fill="#F43F5E" />
        <circle cx="-10" cy="10" r="4" fill="#F43F5E" />
      </g>
    </g>
    
    <!-- 特徴リスト -->
    <text x="125" y="170" font-family="Arial, sans-serif" font-size="18" font-weight="bold" text-anchor="middle" fill="#0F172A">
      「発見する喜び」
    </text>
    
    <g transform="translate(40, 210)">
      <rect x="0" y="0" width="170" height="30" rx="5" ry="5" fill="#FDF2F8" />
      <text x="85" y="20" font-family="Arial, sans-serif" font-size="14" text-anchor="middle" fill="#F43F5E">
        動的コンテンツの発見
      </text>
    </g>
    
    <g transform="translate(40, 260)">
      <rect x="0" y="0" width="170" height="30" rx="5" ry="5" fill="#FDF2F8" />
      <text x="85" y="20" font-family="Arial, sans-serif" font-size="14" text-anchor="middle" fill="#F43F5E">
        個人に最適化された情報
      </text>
    </g>
    
    <g transform="translate(40, 310)">
      <rect x="0" y="0" width="170" height="30" rx="5" ry="5" fill="#FDF2F8" />
      <text x="85" y="20" font-family="Arial, sans-serif" font-size="14" text-anchor="middle" fill="#F43F5E">
        探索を促す仕掛け設計
      </text>
    </g>
  </g>
  
  <!-- 中央の変化の矢印 -->
  <g transform="translate(430, 350)">
    <!-- 矢印の背景円 -->
    <circle cx="70" cy="0" r="70" fill="white" filter="url(#shadow)" />
    
    <!-- メインの矢印 -->
    <path d="M10,-20 L120,-20 L120,-40 L150,0 L120,40 L120,20 L10,20 Z" fill="url(#app-gradient)" opacity="0.2" />
    <path d="M20,-10 L130,-10 L130,-30 L160,0 L130,30 L130,10 L20,10 Z" fill="url(#accent-gradient)" opacity="0.6">
      <animate attributeName="opacity" values="0.6;0.8;0.6" dur="3s" repeatCount="indefinite"/>
    </path>
    
    <!-- 矢印のテキスト -->
    <text x="70" y="70" font-family="Arial, sans-serif" font-size="16" font-weight="bold" text-anchor="middle" fill="#0F172A">
      体験の進化
    </text>
  </g>
  
  <!-- 装飾的な要素 -->
  <!-- ポイント1 -->
  <g transform="translate(100, 90)">
    <circle cx="0" cy="0" r="15" fill="url(#app-gradient)" opacity="0.1" />
    <text x="0" y="5" font-family="Arial, sans-serif" font-size="16" font-weight="bold" text-anchor="middle" fill="#3B82F6">1</text>
  </g>
  
  <!-- ポイント2 -->
  <g transform="translate(900, 90)">
    <circle cx="0" cy="0" r="15" fill="url(#accent-gradient)" opacity="0.1" />
    <text x="0" y="5" font-family="Arial, sans-serif" font-size="16" font-weight="bold" text-anchor="middle" fill="#F43F5E">2</text>
  </g>
  
  <!-- 装飾的な円を削除 -->
</svg>